<?xml version="1.0" encoding="UTF-8" standalone="no"?>
<svg
   xmlns:dc="http://purl.org/dc/elements/1.1/"
   xmlns:cc="http://creativecommons.org/ns#"
   xmlns:rdf="http://www.w3.org/1999/02/22-rdf-syntax-ns#"
   xmlns:svg="http://www.w3.org/2000/svg"
   xmlns="http://www.w3.org/2000/svg"
   xmlns:sodipodi="http://sodipodi.sourceforge.net/DTD/sodipodi-0.dtd"
   xmlns:inkscape="http://www.inkscape.org/namespaces/inkscape"
   width="40"
   height="40"
   viewBox="0 0 40 40"
   fill="none"
   version="1.1"
   id="svg13"
   sodipodi:docname="kk-icon.svg"
   inkscape:version="0.92.4 (5da689c313, 2019-01-14)">
  <metadata
     id="metadata17">
    <rdf:RDF>
      <cc:Work
         rdf:about="">
        <dc:format>image/svg+xml</dc:format>
        <dc:type
           rdf:resource="http://purl.org/dc/dcmitype/StillImage" />
      </cc:Work>
    </rdf:RDF>
  </metadata>
  <sodipodi:namedview
     pagecolor="#ffffff"
     bordercolor="#666666"
     borderopacity="1"
     objecttolerance="10"
     gridtolerance="10"
     guidetolerance="10"
     inkscape:pageopacity="0"
     inkscape:pageshadow="2"
     inkscape:window-width="1366"
     inkscape:window-height="705"
     id="namedview15"
     showgrid="false"
     inkscape:zoom="5.9"
     inkscape:cx="-2.9661017"
     inkscape:cy="20"
     inkscape:window-x="-4"
     inkscape:window-y="-4"
     inkscape:window-maximized="1"
     inkscape:current-layer="svg13" />
  <circle
     cx="20"
     cy="20"
     r="20"
     fill="#F5F5F5"
     id="circle2"
     style="fill:#ffffff" />
  <g
     clip-path="url(#clip0)"
     id="g6">
    <path
       d="M13.442 22.5928C13.5472 22.5103 13.6679 22.4498 13.7969 22.4147C13.9258 22.3796 14.0606 22.3708 14.193 22.3887C14.3255 22.4066 14.453 22.4509 14.5681 22.5189C14.6832 22.5869 14.7834 22.6773 14.8629 22.7847C14.9425 22.8922 14.9996 23.0145 15.0311 23.1444C15.0625 23.2743 15.0676 23.4092 15.0461 23.5411C15.0245 23.673 14.9767 23.7993 14.9055 23.9124C14.8342 24.0255 14.7411 24.1232 14.6315 24.1997C14.054 24.6272 13.6184 25.2185 13.3816 25.8968C13.1448 26.5751 13.1176 27.309 13.3036 28.003L13.7539 29.6837C13.8226 29.9399 13.9902 30.1583 14.2199 30.2909C14.4495 30.4235 14.7225 30.4595 14.9787 30.3908L22.7061 28.3203C22.9623 28.2516 23.1807 28.084 23.3133 27.8544C23.4459 27.6247 23.4818 27.3517 23.4132 27.0955L22.9869 25.5047C22.7951 24.7884 22.3901 24.1473 21.8257 23.6664C21.2612 23.1855 20.5639 22.8875 19.8263 22.8119C19.6928 22.8023 19.5626 22.7659 19.4434 22.705C19.3242 22.6441 19.2184 22.5599 19.1324 22.4573C19.0463 22.3548 18.9818 22.236 18.9425 22.108C18.9032 21.9801 18.89 21.8455 18.9037 21.7124C18.9174 21.5792 18.9576 21.4501 19.0221 21.3328C19.0866 21.2155 19.174 21.1124 19.279 21.0295C19.3841 20.9465 19.5048 20.8856 19.6339 20.8502C19.763 20.8148 19.8979 20.8056 20.0305 20.8233C21.1713 20.9402 22.2496 21.401 23.1225 22.1446C23.9955 22.8881 24.6219 23.8794 24.9188 24.987L25.345 26.5779C25.551 27.3464 25.4432 28.1653 25.0453 28.8544C24.6475 29.5434 23.9923 30.0462 23.2237 30.2521L15.4963 32.3227C14.7278 32.5286 13.9089 32.4208 13.2199 32.023C12.5308 31.6252 12.028 30.9699 11.8221 30.2014L11.3717 28.5207C11.082 27.4389 11.1246 26.2951 11.4938 25.2378C11.863 24.1806 12.5419 23.259 13.442 22.5928ZM14.1836 11.9689C15.2083 11.6943 16.3002 11.8381 17.2189 12.3685C18.1376 12.8989 18.808 13.7726 19.0826 14.7973L19.6002 16.7292C19.8748 17.7539 19.7311 18.8457 19.2006 19.7644C18.6702 20.6832 17.7965 21.3536 16.7718 21.6281C15.7471 21.9027 14.6553 21.759 13.7365 21.2285C12.8178 20.6981 12.1474 19.8244 11.8728 18.7997L11.3552 16.8679C11.0806 15.8432 11.2244 14.7513 11.7548 13.8326C12.2852 12.9139 13.1589 12.2435 14.1836 11.9689ZM14.7013 13.9007C14.1889 14.038 13.7521 14.3732 13.4869 14.8326C13.2216 15.292 13.1498 15.8379 13.2871 16.3502L13.8047 18.2821C13.942 18.7944 14.2772 19.2313 14.7365 19.4965C15.1959 19.7617 15.7418 19.8336 16.2542 19.6963C16.7665 19.559 17.2034 19.2238 17.4686 18.7644C17.7338 18.3051 17.8057 17.7592 17.6684 17.2468L17.1508 15.315C17.0135 14.8026 16.6783 14.3658 16.2189 14.1005C15.7595 13.8353 15.2136 13.7635 14.7013 13.9007ZM27.7945 27.9921C27.5383 28.0608 27.2654 28.0248 27.0357 27.8922C26.806 27.7596 26.6384 27.5412 26.5698 27.285C26.5011 27.0288 26.5371 26.7559 26.6697 26.5262C26.8023 26.2965 27.0207 26.1289 27.2769 26.0603L28.2428 25.8014C28.499 25.7328 28.7174 25.5652 28.85 25.3355C28.9826 25.1058 29.0186 24.8329 28.9499 24.5767L28.4742 22.8013C28.2902 22.1147 27.8948 21.5034 27.344 21.054C26.7933 20.6046 26.1151 20.3398 25.4055 20.2972C25.1407 20.2814 24.8931 20.1611 24.717 19.9626C24.5409 19.7642 24.4509 19.504 24.4667 19.2392C24.4825 18.9744 24.6029 18.7267 24.8013 18.5506C24.9997 18.3745 25.26 18.2845 25.5248 18.3003C26.6535 18.368 27.7324 18.7891 28.6085 19.504C29.4845 20.2189 30.1134 21.1914 30.4061 22.2837L30.8818 24.0591C31.0877 24.8276 30.9799 25.6465 30.5821 26.3355C30.1842 27.0246 29.529 27.5274 28.7604 27.7333L27.7945 27.9921ZM20.238 11.3819C19.9818 11.4505 19.7089 11.4146 19.4792 11.282C19.2495 11.1494 19.0819 10.931 19.0133 10.6748C18.9446 10.4186 18.9806 10.1457 19.1132 9.91598C19.2458 9.68629 19.4642 9.51869 19.7204 9.45005C20.7451 9.17548 21.8369 9.31922 22.7556 9.84965C23.6744 10.3801 24.3448 11.2538 24.6193 12.2785L25.137 14.2103C25.4116 15.235 25.2678 16.3269 24.7374 17.2456C24.2069 18.1643 23.3333 18.8347 22.3086 19.1093C22.0524 19.178 21.7794 19.142 21.5497 19.0094C21.3201 18.8768 21.1525 18.6584 21.0838 18.4022C21.0152 18.146 21.0511 17.8731 21.1837 17.6434C21.3163 17.4137 21.5347 17.2461 21.7909 17.1775C22.3033 17.0402 22.7401 16.705 23.0053 16.2456C23.2705 15.7862 23.3424 15.2403 23.2051 14.728L22.6875 12.7961C22.5502 12.2838 22.215 11.8469 21.7556 11.5817C21.2963 11.3165 20.7504 11.2446 20.238 11.3819Z"
       fill="#1A75CF"
       id="path4" />
  </g>
  <defs
     id="defs11">
    <clipPath
       id="clip0">
      <rect
         width="24"
         height="24"
         fill="white"
         transform="translate(4.84326 11.8834) rotate(-15)"
         id="rect8" />
    </clipPath>
  </defs>
</svg>
