<?xml version="1.0" encoding="UTF-8" standalone="no"?>
<svg
   xmlns:dc="http://purl.org/dc/elements/1.1/"
   xmlns:cc="http://creativecommons.org/ns#"
   xmlns:rdf="http://www.w3.org/1999/02/22-rdf-syntax-ns#"
   xmlns:svg="http://www.w3.org/2000/svg"
   xmlns="http://www.w3.org/2000/svg"
   xmlns:sodipodi="http://sodipodi.sourceforge.net/DTD/sodipodi-0.dtd"
   xmlns:inkscape="http://www.inkscape.org/namespaces/inkscape"
   id="a14aeead-7a51-49c7-9dde-c662f5733ecb"
   data-name="Layer 1"
   width="702.7663"
   height="648.10034"
   viewBox="0 0 702.76628 648.10036"
   version="1.1"
   sodipodi:docname="undraw_Add_files_re_v09g.svg"
   inkscape:version="0.92.4 (5da689c313, 2019-01-14)">
  <metadata
     id="metadata55">
    <rdf:RDF>
      <cc:Work
         rdf:about="">
        <dc:format>image/svg+xml</dc:format>
        <dc:type
           rdf:resource="http://purl.org/dc/dcmitype/StillImage" />
        <dc:title></dc:title>
      </cc:Work>
    </rdf:RDF>
  </metadata>
  <defs
     id="defs53" />
  <sodipodi:namedview
     pagecolor="#ffffff"
     bordercolor="#666666"
     borderopacity="1"
     objecttolerance="10"
     gridtolerance="10"
     guidetolerance="10"
     inkscape:pageopacity="0"
     inkscape:pageshadow="2"
     inkscape:window-width="1366"
     inkscape:window-height="705"
     id="namedview51"
     showgrid="false"
     inkscape:zoom="0.33623981"
     inkscape:cx="-74.436783"
     inkscape:cy="297.17769"
     inkscape:window-x="-4"
     inkscape:window-y="-4"
     inkscape:window-maximized="1"
     inkscape:current-layer="a14aeead-7a51-49c7-9dde-c662f5733ecb"
     fit-margin-top="0"
     fit-margin-left="0"
     fit-margin-right="0"
     fit-margin-bottom="0" />
  <g
     id="g886"
     transform="translate(-0.01738657,-0.01737209)">
    <path
       id="path2"
       transform="translate(-208.9778,-99.05999)"
       d="m 609.48783,100.59015 -25.44631,6.56209 -313.50417,80.84646 -25.44635,6.56209 a 48.17927,48.17927 0 0 0 -34.583,58.61786 l 110.341,427.87741 a 48.17924,48.17924 0 0 0 58.61776,34.58317 l 0.0657,-0.0169 364.26536,-93.93675 0.0657,-0.0169 a 48.17923,48.17923 0 0 0 34.58309,-58.6178 l -110.341,-427.87741 a 48.17928,48.17928 0 0 0 -58.61782,-34.58322 z"
       inkscape:connector-curvature="0"
       style="fill:#f2f2f2" />
    <path
       id="path4"
       transform="translate(-208.9778,-99.05999)"
       d="m 612.94784,114.00532 -30.13945,7.77236 -304.11884,78.42617 -30.139,7.77223 a 34.30949,34.30949 0 0 0 -24.6275,41.74308 l 110.341,427.87741 a 34.30946,34.30946 0 0 0 41.7431,24.62736 l 0.0657,-0.0169 364.26536,-93.93674 0.0662,-0.0171 a 34.30935,34.30935 0 0 0 24.627,-41.7429 l -110.341,-427.87741 a 34.30938,34.30938 0 0 0 -41.74258,-24.62754 z"
       inkscape:connector-curvature="0"
       style="fill:#ffffff" />
    <path
       id="path6"
       transform="translate(-208.9778,-99.05999)"
       d="m 590.19,252.56327 -184.273,47.52032 a 8.014112,8.014112 0 0 1 -4.00241,-15.52046 l 184.273,-47.52033 a 8.01412,8.01412 0 0 1 4.00241,15.52047 z"
       inkscape:connector-curvature="0"
       style="fill:#f2f2f2" />
    <path
       id="path8"
       transform="translate(-208.9778,-99.05999)"
       d="m 628.955,270.49906 -216.284,55.77531 a 8.014112,8.014112 0 1 1 -4.00241,-15.52046 l 216.284,-55.77531 a 8.0141132,8.0141132 0 0 1 4.00242,15.52046 z"
       inkscape:connector-curvature="0"
       style="fill:#f2f2f2" />
    <path
       id="path10"
       transform="translate(-208.9778,-99.05999)"
       d="m 620.45825,369.93676 -184.273,47.52032 a 8.0141132,8.0141132 0 1 1 -4.00242,-15.52046 l 184.273,-47.52032 a 8.014112,8.014112 0 1 1 4.00241,15.52046 z"
       inkscape:connector-curvature="0"
       style="fill:#f2f2f2" />
    <path
       id="path12"
       transform="translate(-208.9778,-99.05999)"
       d="m 659.22329,387.87255 -216.284,55.77531 a 8.0141132,8.0141132 0 1 1 -4.00242,-15.52046 l 216.284,-55.77531 a 8.0141132,8.0141132 0 0 1 4.00242,15.52046 z"
       inkscape:connector-curvature="0"
       style="fill:#f2f2f2" />
    <path
       id="path14"
       transform="translate(-208.9778,-99.05999)"
       d="m 650.72653,487.31025 -184.273,47.52033 a 8.01412,8.01412 0 0 1 -4.00242,-15.52047 l 184.273,-47.52032 a 8.0141132,8.0141132 0 0 1 4.00242,15.52046 z"
       inkscape:connector-curvature="0"
       style="fill:#f2f2f2" />
    <path
       id="path16"
       transform="translate(-208.9778,-99.05999)"
       d="m 689.49156,505.246 -216.284,55.77532 a 8.01412,8.01412 0 1 1 -4.00241,-15.52047 l 216.284,-55.77531 a 8.0141132,8.0141132 0 0 1 4.00242,15.52046 z"
       inkscape:connector-curvature="0"
       style="fill:#f2f2f2" />
    <path
       id="path18"
       transform="translate(-208.9778,-99.05999)"
       d="m 374.45884,348.80871 -65.21246,16.817 a 3.847,3.847 0 0 1 -4.68062,-2.76146 L 289.5963,304.81607 a 3.847,3.847 0 0 1 2.76145,-4.68061 l 65.21247,-16.817 a 3.847,3.847 0 0 1 4.68061,2.76145 l 14.96947,58.04817 a 3.847,3.847 0 0 1 -2.76146,4.68063 z"
       inkscape:connector-curvature="0"
       style="fill:#e6e6e6" />
    <path
       id="path20"
       transform="translate(-208.9778,-99.05999)"
       d="m 404.72712,466.1822 -65.21247,16.817 a 3.847,3.847 0 0 1 -4.68062,-2.76146 L 319.86457,422.18958 A 3.847,3.847 0 0 1 322.626,417.509 l 65.21246,-16.817 a 3.847,3.847 0 0 1 4.68062,2.76145 l 14.96946,58.04817 a 3.847,3.847 0 0 1 -2.76142,4.68058 z"
       inkscape:connector-curvature="0"
       style="fill:#e6e6e6" />
    <path
       id="path22"
       transform="translate(-208.9778,-99.05999)"
       d="m 434.99539,583.55569 -65.21246,16.817 a 3.847,3.847 0 0 1 -4.68062,-2.76145 l -14.96946,-58.04817 a 3.847,3.847 0 0 1 2.76145,-4.68062 l 65.21247,-16.817 a 3.847,3.847 0 0 1 4.68061,2.76146 l 14.96947,58.04816 a 3.847,3.847 0 0 1 -2.76146,4.68062 z"
       inkscape:connector-curvature="0"
       style="fill:#e6e6e6" />
    <path
       id="path24"
       transform="translate(-208.9778,-99.05999)"
       d="M 863.63647,209.0517 H 487.31811 a 48.17928,48.17928 0 0 0 -48.125,48.12512 v 441.87579 a 48.17924,48.17924 0 0 0 48.125,48.12507 h 376.31836 a 48.17924,48.17924 0 0 0 48.125,-48.12507 V 257.17682 a 48.17928,48.17928 0 0 0 -48.125,-48.12512 z"
       inkscape:connector-curvature="0"
       style="fill:#e6e6e6" />
    <path
       id="path26"
       transform="translate(-208.9778,-99.05999)"
       d="M 863.637,222.90589 H 487.31811 a 34.30948,34.30948 0 0 0 -34.271,34.27093 v 441.87579 a 34.30947,34.30947 0 0 0 34.271,34.27088 H 863.637 a 34.30936,34.30936 0 0 0 34.27051,-34.27088 V 257.17682 A 34.30937,34.30937 0 0 0 863.637,222.90589 Z"
       inkscape:connector-curvature="0"
       style="fill:#ffffff" />
    <path
       id="path32"
       transform="translate(-208.9778,-99.05999)"
       d="M 807.00068,465.71551 H 616.699 a 8.01412,8.01412 0 1 1 0,-16.02823 h 190.30168 a 8.01412,8.01412 0 0 1 0,16.02823 z"
       inkscape:connector-curvature="0"
       style="fill:#e6e6e6" />
    <path
       id="path34"
       transform="translate(-208.9778,-99.05999)"
       d="M 840.05889,492.76314 H 616.699 a 8.01412,8.01412 0 1 1 0,-16.02823 h 223.35989 a 8.014115,8.014115 0 1 1 0,16.02823 z"
       inkscape:connector-curvature="0"
       style="fill:#e6e6e6" />
    <path
       id="path36"
       transform="translate(-208.9778,-99.05999)"
       d="M 807.00068,586.929 H 616.699 a 8.01412,8.01412 0 1 1 0,-16.02823 h 190.30168 a 8.014115,8.014115 0 0 1 0,16.02823 z"
       inkscape:connector-curvature="0"
       style="fill:#e6e6e6" />
    <path
       id="path38"
       transform="translate(-208.9778,-99.05999)"
       d="M 840.05889,613.97661 H 616.699 a 8.01412,8.01412 0 1 1 0,-16.02823 h 223.35989 a 8.01412,8.01412 0 1 1 0,16.02823 z"
       inkscape:connector-curvature="0"
       style="fill:#e6e6e6" />
    <path
       id="path40"
       transform="translate(-208.9778,-99.05999)"
       d="m 574.07028,505.04162 h -67.34594 a 3.847,3.847 0 0 1 -3.84278,-3.84278 v -59.94726 a 3.847,3.847 0 0 1 3.84278,-3.84278 h 67.34594 a 3.847,3.847 0 0 1 3.84278,3.84278 v 59.94726 a 3.847,3.847 0 0 1 -3.84278,3.84278 z"
       inkscape:connector-curvature="0"
       style="fill:#e6e6e6" />
    <path
       id="path42"
       transform="translate(-208.9778,-99.05999)"
       d="m 574.07028,626.25509 h -67.34594 a 3.847,3.847 0 0 1 -3.84278,-3.84278 v -59.94726 a 3.847,3.847 0 0 1 3.84278,-3.84278 h 67.34594 a 3.847,3.847 0 0 1 3.84278,3.84278 v 59.94726 a 3.847,3.847 0 0 1 -3.84278,3.84278 z"
       inkscape:connector-curvature="0"
       style="fill:#e6e6e6" />
    <path
       id="path44"
       transform="translate(-208.9778,-99.05999)"
       d="M 807.21185,330.781 H 666.91017 a 8.014115,8.014115 0 0 1 0,-16.02823 h 140.30168 a 8.014115,8.014115 0 0 1 0,16.02823 z"
       inkscape:connector-curvature="0"
       style="fill:#cccccc" />
    <path
       id="path46"
       transform="translate(-208.9778,-99.05999)"
       d="m 840.27007,357.82862 h -173.3599 a 8.01411,8.01411 0 1 1 0,-16.02822 h 173.3599 a 8.01411,8.01411 0 0 1 0,16.02822 z"
       inkscape:connector-curvature="0"
       style="fill:#cccccc" />
    <path
       style="fill:#1a75cf;fill-opacity:1"
       id="path48"
       transform="translate(-208.9778,-99.05999)"
       d="M 635.85911,390.6071 H 506.51316 a 3.847,3.847 0 0 1 -3.84277,-3.84277 V 285.81706 a 3.847,3.847 0 0 1 3.84277,-3.84277 h 129.34595 a 3.847,3.847 0 0 1 3.84277,3.84277 v 100.94727 a 3.847,3.847 0 0 1 -3.84277,3.84277 z"
       inkscape:connector-curvature="0" />
  </g>
</svg>
