<?xml version="1.0" encoding="UTF-8" standalone="no"?>
<svg
   xmlns:dc="http://purl.org/dc/elements/1.1/"
   xmlns:cc="http://creativecommons.org/ns#"
   xmlns:rdf="http://www.w3.org/1999/02/22-rdf-syntax-ns#"
   xmlns:svg="http://www.w3.org/2000/svg"
   xmlns="http://www.w3.org/2000/svg"
   xmlns:sodipodi="http://sodipodi.sourceforge.net/DTD/sodipodi-0.dtd"
   xmlns:inkscape="http://www.inkscape.org/namespaces/inkscape"
   width="40"
   height="40"
   viewBox="0 0 40 40"
   fill="none"
   version="1.1"
   id="svg13"
   sodipodi:docname="lokasi-icon.svg"
   inkscape:version="0.92.4 (5da689c313, 2019-01-14)">
  <metadata
     id="metadata17">
    <rdf:RDF>
      <cc:Work
         rdf:about="">
        <dc:format>image/svg+xml</dc:format>
        <dc:type
           rdf:resource="http://purl.org/dc/dcmitype/StillImage" />
      </cc:Work>
    </rdf:RDF>
  </metadata>
  <sodipodi:namedview
     pagecolor="#ffffff"
     bordercolor="#666666"
     borderopacity="1"
     objecttolerance="10"
     gridtolerance="10"
     guidetolerance="10"
     inkscape:pageopacity="0"
     inkscape:pageshadow="2"
     inkscape:window-width="701"
     inkscape:window-height="480"
     id="namedview15"
     showgrid="false"
     inkscape:zoom="5.9"
     inkscape:cx="-2.9661017"
     inkscape:cy="20"
     inkscape:window-x="0"
     inkscape:window-y="0"
     inkscape:window-maximized="0"
     inkscape:current-layer="svg13" />
  <circle
     cx="20"
     cy="20"
     r="20"
     fill="#F5F5F5"
     id="circle2"
     style="fill:#ffffff" />
  <g
     clip-path="url(#clip0)"
     id="g6">
    <path
       d="M17.1528 9.37485C19.4584 8.75706 21.915 9.08048 23.9822 10.274C26.0493 11.4674 27.5577 13.4332 28.1755 15.7388C29.1399 19.3379 27.4071 23.8439 23.1158 29.3108C22.9822 29.481 22.797 29.6033 22.588 29.6593C22.379 29.7153 22.1575 29.702 21.9567 29.6214C15.5069 27.0325 11.7532 23.9966 10.7888 20.3976C10.1711 18.0919 10.4945 15.6353 11.6879 13.5682C12.8814 11.501 14.8472 9.99264 17.1528 9.37485ZM17.6704 11.3067C15.8772 11.7872 14.3483 12.9604 13.42 14.5682C12.4917 16.176 12.2402 18.0867 12.7207 19.8799C13.4221 22.4976 16.277 24.9689 21.3576 27.2L22.0036 27.4782L22.4239 26.9142C25.7083 22.4418 26.9451 18.8741 26.2437 16.2565C25.7632 14.4632 24.59 12.9343 22.9822 12.006C21.3744 11.0777 19.4637 10.8262 17.6704 11.3067ZM18.9645 16.1363C19.4769 15.999 20.0228 16.0709 20.4822 16.3361C20.9415 16.6014 21.2767 17.0382 21.414 17.5505C21.5513 18.0629 21.4794 18.6088 21.2142 19.0682C20.949 19.5276 20.5122 19.8628 19.9998 20C19.4875 20.1373 18.9415 20.0655 18.4822 19.8002C18.0228 19.535 17.6876 19.0982 17.5503 18.5858C17.413 18.0735 17.4849 17.5276 17.7501 17.0682C18.0153 16.6088 18.4522 16.2736 18.9645 16.1363Z"
       fill="#1A75CF"
       id="path4" />
  </g>
  <defs
     id="defs11">
    <clipPath
       id="clip0">
      <rect
         width="24"
         height="24"
         fill="white"
         transform="translate(5.30298 11.5148) rotate(-15)"
         id="rect8" />
    </clipPath>
  </defs>
</svg>
