<?xml version="1.0" encoding="UTF-8" standalone="no"?>
<svg
   xmlns:dc="http://purl.org/dc/elements/1.1/"
   xmlns:cc="http://creativecommons.org/ns#"
   xmlns:rdf="http://www.w3.org/1999/02/22-rdf-syntax-ns#"
   xmlns:svg="http://www.w3.org/2000/svg"
   xmlns="http://www.w3.org/2000/svg"
   xmlns:sodipodi="http://sodipodi.sourceforge.net/DTD/sodipodi-0.dtd"
   xmlns:inkscape="http://www.inkscape.org/namespaces/inkscape"
   width="40"
   height="40"
   viewBox="0 0 40 40"
   fill="none"
   version="1.1"
   id="svg13"
   sodipodi:docname="wanita-icon.svg"
   inkscape:version="0.92.4 (5da689c313, 2019-01-14)">
  <metadata
     id="metadata17">
    <rdf:RDF>
      <cc:Work
         rdf:about="">
        <dc:format>image/svg+xml</dc:format>
        <dc:type
           rdf:resource="http://purl.org/dc/dcmitype/StillImage" />
      </cc:Work>
    </rdf:RDF>
  </metadata>
  <sodipodi:namedview
     pagecolor="#ffffff"
     bordercolor="#666666"
     borderopacity="1"
     objecttolerance="10"
     gridtolerance="10"
     guidetolerance="10"
     inkscape:pageopacity="0"
     inkscape:pageshadow="2"
     inkscape:window-width="701"
     inkscape:window-height="480"
     id="namedview15"
     showgrid="false"
     inkscape:zoom="5.9"
     inkscape:cx="-2.9661017"
     inkscape:cy="20"
     inkscape:window-x="0"
     inkscape:window-y="0"
     inkscape:window-maximized="0"
     inkscape:current-layer="svg13" />
  <circle
     cx="20"
     cy="20"
     r="20"
     fill="#F5F5F5"
     id="circle2"
     style="fill:#ffffff" />
  <g
     clip-path="url(#clip0)"
     id="g6">
    <path
       d="M20.2145 21.4171C21.4954 21.0739 22.5875 20.2359 23.2505 19.0875C23.9136 17.939 24.0933 16.5743 23.75 15.2934C23.4068 14.0125 22.5688 12.9204 21.4204 12.2573C20.272 11.5943 18.9072 11.4146 17.6263 11.7578C16.3454 12.101 15.2533 12.939 14.5903 14.0875C13.9272 15.2359 13.7476 16.6007 14.0908 17.8816C14.434 19.1625 15.272 20.2545 16.4204 20.9176C17.5688 21.5806 18.9336 21.7603 20.2145 21.4171ZM22.2157 25.022L23.1816 24.7632C23.4378 24.6945 23.7108 24.7304 23.9405 24.8631C24.1701 24.9957 24.3377 25.2141 24.4064 25.4703C24.475 25.7264 24.4391 25.9994 24.3065 26.2291C24.1739 26.4588 23.9555 26.6264 23.6993 26.695L22.7333 26.9538L22.9922 27.9198C23.0608 28.1759 23.0249 28.4489 22.8923 28.6786C22.7597 28.9083 22.5412 29.0759 22.2851 29.1445C22.0289 29.2131 21.7559 29.1772 21.5262 29.0446C21.2966 28.912 21.129 28.6936 21.0603 28.4374L20.8015 27.4715L19.8356 27.7303C19.5794 27.7989 19.3064 27.763 19.0767 27.6304C18.8471 27.4978 18.6795 27.2794 18.6108 27.0232C18.5422 26.767 18.5781 26.494 18.7107 26.2644C18.8433 26.0347 19.0618 25.8671 19.3179 25.7984L20.2839 25.5396L19.7662 23.6078C19.76 23.5846 19.7541 23.5624 19.75 23.5396C17.9945 23.7447 16.2264 23.2783 14.8004 22.234C13.3744 21.1897 12.3961 19.6448 12.0619 17.9092C11.7276 16.1737 12.062 14.3759 12.9981 12.8766C13.9341 11.3774 15.4026 10.2876 17.1087 9.82598C18.8194 9.36483 20.6413 9.56953 22.207 10.3988C23.7727 11.2281 24.9657 12.6202 25.5454 14.2944C26.125 15.9687 26.0483 17.8004 25.3306 19.4203C24.6129 21.0402 23.3076 22.3276 21.678 23.023L21.6981 23.0901L22.2157 25.022Z"
       fill="#1A75CF"
       id="path4" />
  </g>
  <defs
     id="defs11">
    <clipPath
       id="clip0">
      <rect
         width="24"
         height="24"
         fill="white"
         transform="translate(5 11) rotate(-15)"
         id="rect8" />
    </clipPath>
  </defs>
</svg>
